<?xml version="1.0" standalone="no"?><svg xmlns="http://www.w3.org/2000/svg" viewBox="0 0 1440 320"><path fill="#407BFF" fill-opacity="1" d="M0,96L24,101.3C48,107,96,117,144,117.3C192,117,240,107,288,133.3C336,160,384,224,432,213.3C480,203,528,117,576,80C624,43,672,53,720,101.3C768,149,816,235,864,234.7C912,235,960,149,1008,144C1056,139,1104,213,1152,245.3C1200,277,1248,267,1296,256C1344,245,1392,235,1416,229.3L1440,224L1440,320L1416,320C1392,320,1344,320,1296,320C1248,320,1200,320,1152,320C1104,320,1056,320,1008,320C960,320,912,320,864,320C816,320,768,320,720,320C672,320,624,320,576,320C528,320,480,320,432,320C384,320,336,320,288,320C240,320,192,320,144,320C96,320,48,320,24,320L0,320Z"></path></svg>