<?xml version="1.0" standalone="no"?><svg xmlns="http://www.w3.org/2000/svg" viewBox="0 0 1440 320"><path fill="#407BFF" fill-opacity="1" d="M0,192L30,181.3C60,171,120,149,180,165.3C240,181,300,235,360,234.7C420,235,480,181,540,154.7C600,128,660,128,720,154.7C780,181,840,235,900,245.3C960,256,1020,224,1080,229.3C1140,235,1200,277,1260,293.3C1320,309,1380,299,1410,293.3L1440,288L1440,320L1410,320C1380,320,1320,320,1260,320C1200,320,1140,320,1080,320C1020,320,960,320,900,320C840,320,780,320,720,320C660,320,600,320,540,320C480,320,420,320,360,320C300,320,240,320,180,320C120,320,60,320,30,320L0,320Z"></path></svg>